<svg viewBox="0 0 1310 670" fill="none" xmlns="http://www.w3.org/2000/svg">
<path d="M230 32C230 14.3269 244.327 0 262 0H998C1015.67 0 1030 14.3269 1030 32V540H230V32Z" fill="#52525B"/>
<path d="M240 34C240 20.7452 250.745 10 264 10H996C1009.25 10 1020 20.7452 1020 34V530H240V34Z" fill="white"/>
<path d="M170 556H1090V572C1090 580.837 1082.84 588 1074 588H186C177.163 588 170 580.837 170 572V556Z" fill="#D4D4D8"/>
<path d="M170 540H1090V556H170V540Z" fill="#A1A1AA"/>
<mask id="mask0_124_5" style="mask-type:alpha" maskUnits="userSpaceOnUse" x="240" y="10" width="780" height="520">
<path d="M240 34C240 20.7452 250.745 10 264 10H996C1009.25 10 1020 20.7452 1020 34V530H240V34Z" fill="white"/>
</mask>
<g mask="url(#mask0_124_5)">
<rect x="240" y="10" width="780" height="48" fill="#F4F4F5"/>
<rect x="280" y="98" width="420" height="240" rx="12" fill="#E4E4E7"/>
<rect x="720" y="98" width="80" height="80" rx="12" fill="#D4D4D8"/>
<rect x="720" y="198" width="259" height="350" rx="12" fill="#E4E4E7"/>
<rect x="730" y="208" width="239" height="350" rx="8" fill="white"/>
<rect x="810" y="98" width="80" height="80" rx="12" fill="#D4D4D8"/>
<rect x="900" y="98" width="80" height="80" rx="12" fill="#D4D4D8"/>
<rect x="278" y="361" width="280" height="16" rx="8" fill="#E4E4E7"/>
<rect x="278" y="26" width="120" height="16" rx="8" fill="#A1A1AA"/>
<rect x="918" y="26" width="64" height="16" rx="8" fill="#D4D4D8"/>
<rect x="844" y="26" width="64" height="16" rx="8" fill="#D4D4D8"/>
<rect x="746" y="26" width="88" height="16" rx="8" fill="#A1A1AA"/>
<rect x="746" y="54" width="88" height="8" rx="4" fill="#A1A1AA"/>
<rect x="278" y="386" width="140" height="16" rx="8" fill="#E4E4E7"/>
<rect x="278" y="422" width="420" height="60" rx="12" fill="#F4F4F5"/>
<rect x="278" y="492" width="420" height="48" rx="12" fill="#F4F4F5"/>
</g>
<rect x="5" y="321" width="170" height="344" rx="19" fill="white" stroke="#52525B" stroke-width="10"/>
<path d="M54 326H126V332C126 336.418 122.418 340 118 340H62C57.5817 340 54 336.418 54 332V326Z" fill="#52525B"/>
<rect x="20" y="350" width="140" height="96" rx="12" fill="#E4E4E7"/>
<rect x="20" y="528" width="140" height="60" rx="12" fill="#F4F4F5"/>
<rect x="20" y="598" width="140" height="48" rx="12" fill="#F4F4F5"/>
<rect x="20" y="466" width="140" height="12" rx="6" fill="#E4E4E7"/>
<rect x="20" y="486" width="84" height="12" rx="6" fill="#E4E4E7"/>
<path d="M10 628H170V646C170 653.732 163.732 660 156 660H24C16.268 660 10 653.732 10 646V628Z" fill="#E4E4E7"/>
<rect x="58" y="624" width="32" height="8" fill="#A1A1AA"/>
<rect x="58" y="632" width="32" height="28" fill="#D4D4D8"/>
<rect x="795" y="275" width="510" height="390" rx="19" fill="white" stroke="#52525B" stroke-width="10"/>
<rect x="820" y="300" width="280" height="192" rx="12" fill="#E4E4E7"/>
<rect x="820" y="512" width="280" height="16" rx="8" fill="#E4E4E7"/>
<rect x="820" y="537" width="140" height="16" rx="8" fill="#E4E4E7"/>
<rect x="1120" y="300" width="160" height="60" rx="12" fill="#F4F4F5"/>
<rect x="1120" y="470" width="160" height="60" rx="12" fill="#F4F4F5"/>
<rect x="1120" y="540" width="160" height="40" rx="12" fill="#F4F4F5"/>
<rect x="1120" y="370" width="160" height="48" rx="12" fill="#F4F4F5"/>
<rect x="1120" y="428" width="160" height="32" rx="12" fill="#F4F4F5"/>
<path d="M800 628H1300V646C1300 653.732 1293.73 660 1286 660H814C806.268 660 800 653.732 800 646V628Z" fill="#E4E4E7"/>
<rect x="896" y="624" width="96" height="8" fill="#A1A1AA"/>
<rect x="896" y="632" width="96" height="28" fill="#D4D4D8"/>
</svg>
