<svg viewBox="0 0 220 36" fill="none" xmlns="http://www.w3.org/2000/svg">
<path d="M60.0117 12.9395L55.959 25H53.1172L58.4297 10.7812H60.2461L60.0117 12.9395ZM63.4004 25L59.3281 12.9395L59.084 10.7812H60.9102L66.252 25H63.4004ZM63.2148 19.7168V21.8359H55.5879V19.7168H63.2148ZM69.8457 16.4648V29.0625H67.2578V14.4336H69.6504L69.8457 16.4648ZM76.6328 19.6094V19.8145C76.6328 20.5827 76.5417 21.2956 76.3594 21.9531C76.1836 22.6042 75.9232 23.1738 75.5781 23.6621C75.2331 24.1439 74.8034 24.5215 74.2891 24.7949C73.7812 25.0618 73.1953 25.1953 72.5312 25.1953C71.8802 25.1953 71.3138 25.0716 70.832 24.8242C70.3503 24.5703 69.9434 24.2122 69.6113 23.75C69.2793 23.2878 69.0124 22.7507 68.8105 22.1387C68.6152 21.5202 68.4688 20.8464 68.3711 20.1172V19.4629C68.4688 18.6882 68.6152 17.985 68.8105 17.3535C69.0124 16.7155 69.2793 16.1654 69.6113 15.7031C69.9434 15.2344 70.347 14.873 70.8223 14.6191C71.304 14.3652 71.8672 14.2383 72.5117 14.2383C73.1823 14.2383 73.7715 14.3652 74.2793 14.6191C74.7936 14.873 75.2266 15.2376 75.5781 15.7129C75.9297 16.1882 76.1934 16.7546 76.3691 17.4121C76.5449 18.0697 76.6328 18.8021 76.6328 19.6094ZM74.0449 19.8145V19.6094C74.0449 19.1406 74.0026 18.7077 73.918 18.3105C73.8333 17.9069 73.7031 17.5553 73.5273 17.2559C73.3516 16.9499 73.1237 16.7122 72.8438 16.543C72.5638 16.3737 72.2253 16.2891 71.8281 16.2891C71.431 16.2891 71.0892 16.3542 70.8027 16.4844C70.5163 16.6146 70.2819 16.8001 70.0996 17.041C69.9173 17.2819 69.7741 17.5684 69.6699 17.9004C69.5723 18.2259 69.5072 18.5872 69.4746 18.9844V20.6055C69.5332 21.0872 69.6471 21.5202 69.8164 21.9043C69.9857 22.2884 70.2331 22.5944 70.5586 22.8223C70.8906 23.0501 71.3203 23.1641 71.8477 23.1641C72.2448 23.1641 72.5833 23.0762 72.8633 22.9004C73.1432 22.7246 73.3711 22.4837 73.5469 22.1777C73.7227 21.8652 73.8496 21.5072 73.9277 21.1035C74.0059 20.6999 74.0449 20.2702 74.0449 19.8145ZM78.0586 19.8242V19.6191C78.0586 18.8444 78.1693 18.1315 78.3906 17.4805C78.612 16.8229 78.9342 16.2533 79.3574 15.7715C79.7806 15.2897 80.2982 14.9154 80.9102 14.6484C81.5221 14.375 82.2188 14.2383 83 14.2383C83.7943 14.2383 84.4974 14.375 85.1094 14.6484C85.7279 14.9154 86.2487 15.2897 86.6719 15.7715C87.0951 16.2533 87.4173 16.8229 87.6387 17.4805C87.86 18.1315 87.9707 18.8444 87.9707 19.6191V19.8242C87.9707 20.5924 87.86 21.3053 87.6387 21.9629C87.4173 22.6139 87.0951 23.1836 86.6719 23.6719C86.2487 24.1536 85.7311 24.528 85.1191 24.7949C84.5072 25.0618 83.8073 25.1953 83.0195 25.1953C82.2383 25.1953 81.5384 25.0618 80.9199 24.7949C80.3014 24.528 79.7806 24.1536 79.3574 23.6719C78.9342 23.1836 78.612 22.6139 78.3906 21.9629C78.1693 21.3053 78.0586 20.5924 78.0586 19.8242ZM80.6367 19.6191V19.8242C80.6367 20.2865 80.6823 20.7194 80.7734 21.123C80.8646 21.5267 81.0046 21.8815 81.1934 22.1875C81.3822 22.4935 81.6263 22.7344 81.9258 22.9102C82.2318 23.0794 82.5964 23.1641 83.0195 23.1641C83.4362 23.1641 83.7943 23.0794 84.0938 22.9102C84.3932 22.7344 84.6374 22.4935 84.8262 22.1875C85.0215 21.8815 85.1647 21.5267 85.2559 21.123C85.347 20.7194 85.3926 20.2865 85.3926 19.8242V19.6191C85.3926 19.1634 85.347 18.737 85.2559 18.3398C85.1647 17.9362 85.0215 17.5814 84.8262 17.2754C84.6374 16.9629 84.39 16.7188 84.084 16.543C83.7845 16.3607 83.4232 16.2695 83 16.2695C82.5833 16.2695 82.2253 16.3607 81.9258 16.543C81.6263 16.7188 81.3822 16.9629 81.1934 17.2754C81.0046 17.5814 80.8646 17.9362 80.7734 18.3398C80.6823 18.737 80.6367 19.1634 80.6367 19.6191ZM96.5645 14.4336H98.9082V24.6777C98.9082 25.6348 98.6999 26.4453 98.2832 27.1094C97.873 27.7799 97.2969 28.2878 96.5547 28.6328C95.8125 28.9844 94.9499 29.1602 93.9668 29.1602C93.5436 29.1602 93.0846 29.1016 92.5898 28.9844C92.1016 28.8672 91.6296 28.6816 91.1738 28.4277C90.7246 28.1803 90.3503 27.8581 90.0508 27.4609L91.2129 25.9375C91.5645 26.3477 91.9616 26.6569 92.4043 26.8652C92.847 27.0801 93.3255 27.1875 93.8398 27.1875C94.3607 27.1875 94.8034 27.0898 95.168 26.8945C95.5391 26.7057 95.8223 26.4258 96.0176 26.0547C96.2194 25.6901 96.3203 25.2409 96.3203 24.707V16.8457L96.5645 14.4336ZM89.4258 19.8438V19.6387C89.4258 18.8314 89.5234 18.099 89.7188 17.4414C89.9141 16.7773 90.194 16.2077 90.5586 15.7324C90.9297 15.2572 91.3757 14.8893 91.8965 14.6289C92.4238 14.3685 93.0163 14.2383 93.6738 14.2383C94.3704 14.2383 94.9564 14.3652 95.4316 14.6191C95.9134 14.873 96.3105 15.2344 96.623 15.7031C96.9421 16.1719 97.1895 16.7285 97.3652 17.373C97.5475 18.0111 97.6875 18.7142 97.7852 19.4824V20.0391C97.694 20.7878 97.5475 21.4746 97.3457 22.0996C97.1504 22.7246 96.89 23.2715 96.5645 23.7402C96.2389 24.2025 95.8353 24.5605 95.3535 24.8145C94.8717 25.0684 94.3053 25.1953 93.6543 25.1953C93.0033 25.1953 92.4173 25.0618 91.8965 24.7949C91.3757 24.528 90.9297 24.1536 90.5586 23.6719C90.194 23.1901 89.9141 22.6237 89.7188 21.9727C89.5234 21.3216 89.4258 20.612 89.4258 19.8438ZM92.0039 19.6387V19.8438C92.0039 20.2995 92.0495 20.7259 92.1406 21.123C92.2318 21.5202 92.3717 21.8717 92.5605 22.1777C92.7493 22.4772 92.987 22.7116 93.2734 22.8809C93.5599 23.0501 93.9017 23.1348 94.2988 23.1348C94.8327 23.1348 95.2689 23.0241 95.6074 22.8027C95.9525 22.5749 96.2129 22.2656 96.3887 21.875C96.571 21.4779 96.6882 21.0319 96.7402 20.5371V19.0039C96.7077 18.6133 96.6361 18.252 96.5254 17.9199C96.4212 17.5879 96.2747 17.3014 96.0859 17.0605C95.8971 16.8197 95.6562 16.6309 95.3633 16.4941C95.0703 16.3574 94.722 16.2891 94.3184 16.2891C93.9277 16.2891 93.5859 16.377 93.293 16.5527C93 16.722 92.7591 16.9596 92.5703 17.2656C92.3815 17.5716 92.2383 17.9264 92.1406 18.3301C92.0495 18.7337 92.0039 19.1699 92.0039 19.6387ZM105.979 25.1953C105.178 25.1953 104.458 25.0651 103.82 24.8047C103.182 24.5443 102.639 24.1829 102.189 23.7207C101.747 23.252 101.405 22.7083 101.164 22.0898C100.93 21.4648 100.812 20.7943 100.812 20.0781V19.6875C100.812 18.8737 100.93 18.1348 101.164 17.4707C101.398 16.8001 101.73 16.224 102.16 15.7422C102.59 15.2604 103.104 14.8893 103.703 14.6289C104.302 14.3685 104.963 14.2383 105.686 14.2383C106.434 14.2383 107.095 14.3652 107.668 14.6191C108.241 14.8665 108.719 15.2181 109.104 15.6738C109.488 16.1296 109.777 16.6764 109.973 17.3145C110.168 17.946 110.266 18.6458 110.266 19.4141V20.498H101.984V18.7207H107.727V18.5254C107.714 18.1152 107.635 17.7409 107.492 17.4023C107.349 17.0573 107.128 16.7839 106.828 16.582C106.529 16.3737 106.141 16.2695 105.666 16.2695C105.282 16.2695 104.947 16.3542 104.66 16.5234C104.38 16.6862 104.146 16.9206 103.957 17.2266C103.775 17.526 103.638 17.8841 103.547 18.3008C103.456 18.7174 103.41 19.1797 103.41 19.6875V20.0781C103.41 20.5208 103.469 20.931 103.586 21.3086C103.71 21.6862 103.889 22.015 104.123 22.2949C104.364 22.5684 104.65 22.7832 104.982 22.9395C105.321 23.0892 105.705 23.1641 106.135 23.1641C106.675 23.1641 107.163 23.0599 107.6 22.8516C108.042 22.6367 108.426 22.321 108.752 21.9043L110.051 23.252C109.829 23.5775 109.53 23.89 109.152 24.1895C108.781 24.4889 108.332 24.7331 107.805 24.9219C107.277 25.1042 106.669 25.1953 105.979 25.1953ZM116.74 25.1953C115.939 25.1953 115.22 25.0651 114.582 24.8047C113.944 24.5443 113.4 24.1829 112.951 23.7207C112.508 23.252 112.167 22.7083 111.926 22.0898C111.691 21.4648 111.574 20.7943 111.574 20.0781V19.6875C111.574 18.8737 111.691 18.1348 111.926 17.4707C112.16 16.8001 112.492 16.224 112.922 15.7422C113.352 15.2604 113.866 14.8893 114.465 14.6289C115.064 14.3685 115.725 14.2383 116.447 14.2383C117.196 14.2383 117.857 14.3652 118.43 14.6191C119.003 14.8665 119.481 15.2181 119.865 15.6738C120.249 16.1296 120.539 16.6764 120.734 17.3145C120.93 17.946 121.027 18.6458 121.027 19.4141V20.498H112.746V18.7207H118.488V18.5254C118.475 18.1152 118.397 17.7409 118.254 17.4023C118.111 17.0573 117.889 16.7839 117.59 16.582C117.29 16.3737 116.903 16.2695 116.428 16.2695C116.044 16.2695 115.708 16.3542 115.422 16.5234C115.142 16.6862 114.908 16.9206 114.719 17.2266C114.536 17.526 114.4 17.8841 114.309 18.3008C114.217 18.7174 114.172 19.1797 114.172 19.6875V20.0781C114.172 20.5208 114.23 20.931 114.348 21.3086C114.471 21.6862 114.65 22.015 114.885 22.2949C115.126 22.5684 115.412 22.7832 115.744 22.9395C116.083 23.0892 116.467 23.1641 116.896 23.1641C117.437 23.1641 117.925 23.0599 118.361 22.8516C118.804 22.6367 119.188 22.321 119.514 21.9043L120.812 23.252C120.591 23.5775 120.292 23.89 119.914 24.1895C119.543 24.4889 119.094 24.7331 118.566 24.9219C118.039 25.1042 117.43 25.1953 116.74 25.1953ZM133.586 12.9395L129.533 25H126.691L132.004 10.7812H133.82L133.586 12.9395ZM136.975 25L132.902 12.9395L132.658 10.7812H134.484L139.826 25H136.975ZM136.789 19.7168V21.8359H129.162V19.7168H136.789ZM145.432 23.1641C145.796 23.1641 146.122 23.0924 146.408 22.9492C146.695 22.806 146.923 22.6042 147.092 22.3438C147.268 22.0833 147.362 21.7806 147.375 21.4355H149.807C149.794 22.1517 149.592 22.793 149.201 23.3594C148.811 23.9258 148.29 24.375 147.639 24.707C146.994 25.0326 146.271 25.1953 145.471 25.1953C144.657 25.1953 143.947 25.0586 143.342 24.7852C142.736 24.5117 142.232 24.1309 141.828 23.6426C141.431 23.1543 141.132 22.5879 140.93 21.9434C140.734 21.2988 140.637 20.6087 140.637 19.873V19.5605C140.637 18.8249 140.734 18.1348 140.93 17.4902C141.132 16.8457 141.431 16.2793 141.828 15.791C142.232 15.3027 142.736 14.9219 143.342 14.6484C143.947 14.375 144.654 14.2383 145.461 14.2383C146.314 14.2383 147.062 14.4043 147.707 14.7363C148.358 15.0684 148.866 15.5371 149.23 16.1426C149.602 16.748 149.794 17.4609 149.807 18.2812H147.375C147.362 17.9036 147.277 17.5651 147.121 17.2656C146.965 16.9661 146.743 16.7253 146.457 16.543C146.171 16.3607 145.822 16.2695 145.412 16.2695C144.976 16.2695 144.611 16.3607 144.318 16.543C144.032 16.7253 143.807 16.9759 143.645 17.2949C143.488 17.6074 143.378 17.959 143.312 18.3496C143.254 18.7337 143.225 19.1374 143.225 19.5605V19.873C143.225 20.3027 143.254 20.7129 143.312 21.1035C143.378 21.4941 143.488 21.8457 143.645 22.1582C143.807 22.4642 144.032 22.7083 144.318 22.8906C144.611 23.0729 144.982 23.1641 145.432 23.1641ZM157.346 22.7539V17.8809C157.346 17.5228 157.284 17.2135 157.16 16.9531C157.036 16.6927 156.848 16.4909 156.594 16.3477C156.34 16.2044 156.018 16.1328 155.627 16.1328C155.282 16.1328 154.979 16.1914 154.719 16.3086C154.465 16.4258 154.27 16.5918 154.133 16.8066C153.996 17.015 153.928 17.2559 153.928 17.5293H151.34C151.34 17.0931 151.444 16.6797 151.652 16.2891C151.861 15.8919 152.157 15.5404 152.541 15.2344C152.932 14.9219 153.397 14.6777 153.938 14.502C154.484 14.3262 155.096 14.2383 155.773 14.2383C156.574 14.2383 157.287 14.375 157.912 14.6484C158.544 14.9154 159.038 15.319 159.396 15.8594C159.761 16.3997 159.943 17.0801 159.943 17.9004V22.5098C159.943 23.0371 159.976 23.4896 160.041 23.8672C160.113 24.2383 160.217 24.5605 160.354 24.834V25H157.727C157.603 24.7331 157.508 24.3945 157.443 23.9844C157.378 23.5677 157.346 23.1576 157.346 22.7539ZM157.707 18.5645L157.727 20.0977H156.096C155.692 20.0977 155.337 20.14 155.031 20.2246C154.725 20.3027 154.475 20.4199 154.279 20.5762C154.084 20.7259 153.938 20.9082 153.84 21.123C153.742 21.3314 153.693 21.569 153.693 21.8359C153.693 22.0964 153.752 22.3307 153.869 22.5391C153.993 22.7474 154.169 22.9134 154.396 23.0371C154.631 23.1543 154.904 23.2129 155.217 23.2129C155.673 23.2129 156.07 23.1217 156.408 22.9395C156.747 22.7507 157.01 22.5228 157.199 22.2559C157.388 21.9889 157.489 21.735 157.502 21.4941L158.244 22.6074C158.153 22.8743 158.016 23.1576 157.834 23.457C157.652 23.7565 157.417 24.0365 157.131 24.2969C156.844 24.5573 156.499 24.7721 156.096 24.9414C155.692 25.1107 155.223 25.1953 154.689 25.1953C154.006 25.1953 153.394 25.0586 152.854 24.7852C152.313 24.5117 151.887 24.1374 151.574 23.6621C151.262 23.1868 151.105 22.6465 151.105 22.041C151.105 21.4811 151.21 20.9863 151.418 20.5566C151.626 20.127 151.936 19.7656 152.346 19.4727C152.756 19.1732 153.264 18.9486 153.869 18.7988C154.481 18.6426 155.181 18.5645 155.969 18.5645H157.707ZM168.605 22.7539V10H171.203V25H168.859L168.605 22.7539ZM161.818 19.8438V19.6387C161.818 18.8314 161.91 18.099 162.092 17.4414C162.281 16.7773 162.554 16.2077 162.912 15.7324C163.27 15.2572 163.703 14.8893 164.211 14.6289C164.725 14.3685 165.308 14.2383 165.959 14.2383C166.59 14.2383 167.141 14.3652 167.609 14.6191C168.085 14.873 168.488 15.2344 168.82 15.7031C169.159 16.1719 169.429 16.7285 169.631 17.373C169.833 18.0111 169.979 18.7142 170.07 19.4824V20.0391C169.979 20.7878 169.833 21.4746 169.631 22.0996C169.429 22.7246 169.159 23.2715 168.82 23.7402C168.488 24.2025 168.085 24.5605 167.609 24.8145C167.134 25.0684 166.577 25.1953 165.939 25.1953C165.295 25.1953 164.715 25.0618 164.201 24.7949C163.693 24.528 163.26 24.1536 162.902 23.6719C162.551 23.1901 162.281 22.6237 162.092 21.9727C161.91 21.3216 161.818 20.612 161.818 19.8438ZM164.406 19.6387V19.8438C164.406 20.2995 164.445 20.7259 164.523 21.123C164.602 21.5202 164.729 21.8717 164.904 22.1777C165.08 22.4772 165.305 22.7116 165.578 22.8809C165.858 23.0501 166.197 23.1348 166.594 23.1348C167.102 23.1348 167.518 23.0241 167.844 22.8027C168.176 22.5749 168.433 22.2656 168.615 21.875C168.798 21.4779 168.915 21.0319 168.967 20.5371V19.0039C168.941 18.6133 168.872 18.252 168.762 17.9199C168.658 17.5879 168.508 17.3014 168.312 17.0605C168.124 16.8197 167.889 16.6309 167.609 16.4941C167.329 16.3574 166.997 16.2891 166.613 16.2891C166.216 16.2891 165.878 16.377 165.598 16.5527C165.318 16.722 165.09 16.9596 164.914 17.2656C164.738 17.5716 164.608 17.9264 164.523 18.3301C164.445 18.7337 164.406 19.1699 164.406 19.6387ZM178.283 25.1953C177.482 25.1953 176.763 25.0651 176.125 24.8047C175.487 24.5443 174.943 24.1829 174.494 23.7207C174.051 23.252 173.71 22.7083 173.469 22.0898C173.234 21.4648 173.117 20.7943 173.117 20.0781V19.6875C173.117 18.8737 173.234 18.1348 173.469 17.4707C173.703 16.8001 174.035 16.224 174.465 15.7422C174.895 15.2604 175.409 14.8893 176.008 14.6289C176.607 14.3685 177.268 14.2383 177.99 14.2383C178.739 14.2383 179.4 14.3652 179.973 14.6191C180.546 14.8665 181.024 15.2181 181.408 15.6738C181.792 16.1296 182.082 16.6764 182.277 17.3145C182.473 17.946 182.57 18.6458 182.57 19.4141V20.498H174.289V18.7207H180.031V18.5254C180.018 18.1152 179.94 17.7409 179.797 17.4023C179.654 17.0573 179.432 16.7839 179.133 16.582C178.833 16.3737 178.446 16.2695 177.971 16.2695C177.587 16.2695 177.251 16.3542 176.965 16.5234C176.685 16.6862 176.451 16.9206 176.262 17.2266C176.079 17.526 175.943 17.8841 175.852 18.3008C175.76 18.7174 175.715 19.1797 175.715 19.6875V20.0781C175.715 20.5208 175.773 20.931 175.891 21.3086C176.014 21.6862 176.193 22.015 176.428 22.2949C176.669 22.5684 176.955 22.7832 177.287 22.9395C177.626 23.0892 178.01 23.1641 178.439 23.1641C178.98 23.1641 179.468 23.0599 179.904 22.8516C180.347 22.6367 180.731 22.321 181.057 21.9043L182.355 23.252C182.134 23.5775 181.835 23.89 181.457 24.1895C181.086 24.4889 180.637 24.7331 180.109 24.9219C179.582 25.1042 178.973 25.1953 178.283 25.1953ZM186.867 16.6016V25H184.289V14.4336H186.721L186.867 16.6016ZM186.486 19.3359H185.695C185.695 18.6003 185.783 17.9232 185.959 17.3047C186.141 16.6862 186.408 16.1491 186.76 15.6934C187.111 15.2311 187.544 14.873 188.059 14.6191C188.579 14.3652 189.182 14.2383 189.865 14.2383C190.34 14.2383 190.777 14.3099 191.174 14.4531C191.571 14.5898 191.913 14.8079 192.199 15.1074C192.492 15.4004 192.717 15.7845 192.873 16.2598C193.029 16.7285 193.107 17.2917 193.107 17.9492V25H190.529V18.2129C190.529 17.7181 190.458 17.3307 190.314 17.0508C190.178 16.7708 189.979 16.5755 189.719 16.4648C189.458 16.3477 189.146 16.2891 188.781 16.2891C188.378 16.2891 188.029 16.3704 187.736 16.5332C187.45 16.6895 187.212 16.9076 187.023 17.1875C186.841 17.4674 186.704 17.7897 186.613 18.1543C186.529 18.5189 186.486 18.9128 186.486 19.3359ZM192.912 18.8574L191.848 19.0527C191.854 18.3887 191.945 17.7669 192.121 17.1875C192.297 16.6016 192.554 16.0905 192.893 15.6543C193.238 15.2116 193.664 14.8665 194.172 14.6191C194.686 14.3652 195.279 14.2383 195.949 14.2383C196.47 14.2383 196.939 14.3132 197.355 14.4629C197.779 14.6061 198.14 14.8372 198.439 15.1562C198.739 15.4688 198.967 15.8757 199.123 16.377C199.286 16.8783 199.367 17.4902 199.367 18.2129V25H196.77V18.2031C196.77 17.6888 196.698 17.2949 196.555 17.0215C196.418 16.748 196.219 16.5592 195.959 16.4551C195.699 16.3444 195.393 16.2891 195.041 16.2891C194.683 16.2891 194.37 16.3574 194.104 16.4941C193.843 16.6243 193.622 16.8066 193.439 17.041C193.264 17.2754 193.13 17.5488 193.039 17.8613C192.954 18.1673 192.912 18.4993 192.912 18.8574ZM204.777 23.8281L207.609 14.4336H210.373L206.135 26.6016C206.037 26.862 205.91 27.1452 205.754 27.4512C205.604 27.7572 205.402 28.0469 205.148 28.3203C204.895 28.6003 204.576 28.8281 204.191 29.0039C203.814 29.1797 203.355 29.2676 202.814 29.2676C202.58 29.2676 202.372 29.2513 202.189 29.2188C202.007 29.1862 201.815 29.1439 201.613 29.0918V27.1582C201.678 27.1647 201.753 27.168 201.838 27.168C201.929 27.1745 202.007 27.1777 202.072 27.1777C202.45 27.1777 202.762 27.1322 203.01 27.041C203.257 26.9564 203.456 26.8164 203.605 26.6211C203.762 26.4323 203.892 26.1849 203.996 25.8789L204.777 23.8281ZM203.381 14.4336L205.773 22.2168L206.193 24.9414L204.416 25.2637L200.598 14.4336H203.381Z" fill="black"/>
<path fill-rule="evenodd" clip-rule="evenodd" d="M5.68011 23.5551C6.53054 25.3068 7.63634 26.9306 8.93402 28.366C5.85783 29.3651 3.673 29.5173 3.0473 28.5904C2.42192 27.664 3.46485 25.8232 5.68011 23.5551Z" stroke="url(#paint0_linear_150_5)" stroke-width="3" stroke-miterlimit="1.5" stroke-linejoin="round"/>
<path fill-rule="evenodd" clip-rule="evenodd" d="M33.552 7.63283C36.6276 6.63373 38.8134 6.48133 39.4391 7.4082C40.0645 8.33459 39.0216 10.1753 36.8059 12.4438C35.955 10.6913 34.8491 9.06723 33.552 7.63283Z" stroke="url(#paint1_linear_150_5)" stroke-width="3" stroke-miterlimit="1.5" stroke-linejoin="round"/>
<path d="M8.94688 28.2289L8.93579 28.2153C12.7165 26.9596 17.8373 24.5854 23.2457 21.4628" stroke="url(#paint2_linear_150_5)" stroke-width="3" stroke-miterlimit="1.5" stroke-linecap="round" stroke-linejoin="round"/>
<path fill-rule="evenodd" clip-rule="evenodd" d="M23.8303 16.9763C25.2303 15.8994 27.241 16.1617 28.3178 17.5616C29.3946 18.9615 29.1324 20.9722 27.7324 22.0492C26.3324 23.126 24.3218 22.8636 23.245 21.4636C22.1682 20.0639 22.4303 18.053 23.8303 16.9763Z" stroke="url(#paint3_linear_150_5)" stroke-width="3" stroke-miterlimit="10"/>
<path d="M21.247 33.9988C21.247 33.9988 18.2461 32.762 19.647 28.1321C21.1851 23.0489 23.247 21.4628 23.247 21.4628" stroke="url(#paint4_linear_150_5)" stroke-width="3" stroke-miterlimit="1.5" stroke-linejoin="round"/>
<path d="M21.2444 34C30.0809 34 37.2444 26.8366 37.2444 18C37.2444 9.16344 30.0809 2 21.2444 2C12.4078 2 5.24438 9.16344 5.24438 18C5.24438 26.8366 12.4078 34 21.2444 34Z" stroke="url(#paint5_linear_150_5)" stroke-width="3" stroke-miterlimit="1.5" stroke-linejoin="round"/>
<defs>
<linearGradient id="paint0_linear_150_5" x1="14.3739" y1="36.7956" x2="27.1096" y2="-4.62802" gradientUnits="userSpaceOnUse">
<stop stop-color="#6EE7B7"/>
<stop offset="0.5" stop-color="#3B82F6"/>
<stop offset="1" stop-color="#9333EA"/>
</linearGradient>
<linearGradient id="paint1_linear_150_5" x1="18.0883" y1="35.793" x2="30.8239" y2="-5.63077" gradientUnits="userSpaceOnUse">
<stop stop-color="#6EE7B7"/>
<stop offset="0.5" stop-color="#3B82F6"/>
<stop offset="1" stop-color="#9333EA"/>
</linearGradient>
<linearGradient id="paint2_linear_150_5" x1="5.24569" y1="33.9988" x2="37.2457" y2="1.99878" gradientUnits="userSpaceOnUse">
<stop stop-color="#6EE7B7"/>
<stop offset="0.5" stop-color="#3B82F6"/>
<stop offset="1" stop-color="#9333EA"/>
</linearGradient>
<linearGradient id="paint3_linear_150_5" x1="5.245" y1="33.9996" x2="37.245" y2="1.99966" gradientUnits="userSpaceOnUse">
<stop stop-color="#6EE7B7"/>
<stop offset="0.5" stop-color="#3B82F6"/>
<stop offset="1" stop-color="#9333EA"/>
</linearGradient>
<linearGradient id="paint4_linear_150_5" x1="5.24701" y1="33.9988" x2="37.247" y2="1.99878" gradientUnits="userSpaceOnUse">
<stop stop-color="#6EE7B7"/>
<stop offset="0.5" stop-color="#3B82F6"/>
<stop offset="1" stop-color="#9333EA"/>
</linearGradient>
<linearGradient id="paint5_linear_150_5" x1="5.24438" y1="33.4754" x2="36.7198" y2="2" gradientUnits="userSpaceOnUse">
<stop stop-color="#6EE7B7"/>
<stop offset="0.5" stop-color="#3B82F6"/>
<stop offset="1" stop-color="#9333EA"/>
</linearGradient>
</defs>
</svg>
